Coordinates
version=1
nRows=16
nColumns=40
inDegrees=yes

Units are S.I. units (second, meters, Newtons, ...)
Angles are in degrees.

endheader
time	pelvis_tilt	pelvis_list	pelvis_rotation	pelvis_tx	pelvis_ty	pelvis_tz	hip_flexion_r	hip_adduction_r	hip_rotation_r	knee_angle_r	knee_angle_r_beta	ankle_angle_r	subtalar_angle_r	mtp_angle_r	hip_flexion_l	hip_adduction_l	hip_rotation_l	knee_angle_l	knee_angle_l_beta	ankle_angle_l	subtalar_angle_l	mtp_angle_l	lumbar_extension	lumbar_bending	lumbar_rotation	arm_flex_r	arm_add_r	arm_rot_r	elbow_flex_r	pro_sup_r	wrist_flex_r	wrist_dev_r	arm_flex_l	arm_add_l	arm_rot_l	elbow_flex_l	pro_sup_l	wrist_flex_l	wrist_dev_l
      9.37250000	     -1.84905183	     -5.99014078	      0.98499773	      0.95010459	      0.92171750	      0.55869079	     12.17737277	      7.31322048	    -12.26245437	     23.65480728	     23.65480728	     15.06048834	     -8.47379441	     -1.69390810	     27.60859874	    -13.68779780	      1.82536343	     63.58192346	     63.58192346	     15.73600006	    -19.48799876	     19.24655979	    -11.22180206	      6.28465806	      0.02294211	     11.73487736	    -18.62735667	    -18.12656756	     37.57218265	     46.33591708	      0.00000000	      0.00000000	      7.46810194	     -7.98139376	      0.36575233	     28.07329769	     46.09547770	      0.00000000	      0.00000000
      9.39300000	     -1.52036918	     -6.05604420	      1.44479754	      0.94850299	      0.92008670	      0.56005821	     12.03644317	      7.54441011	    -11.93730868	     24.59582028	     24.59582028	     15.94651503	     -9.64375290	     -0.84935291	     28.88762772	    -13.55508043	      2.14650935	     62.07810231	     62.07810231	     17.30932818	    -19.52310152	     22.23633187	    -11.49112657	      6.05944726	      0.25841284	     14.57474622	    -18.36695322	    -17.29762639	     37.17181520	     46.30559532	      0.00000000	      0.00000000	      5.63552812	     -7.46213965	      2.02363998	     25.02568137	     45.79314368	      0.00000000	      0.00000000
      9.41350000	     -1.20485338	     -6.02227671	      1.89052458	      0.94675175	      0.91831424	      0.56116971	     11.99497493	      7.58017030	    -11.87850814	     25.70406006	     25.70406006	     16.62594490	    -10.57952841	     -0.99704087	     29.86711593	    -13.34620142	      2.25673418	     59.92051344	     59.92051344	     17.58265362	    -19.53125517	     22.19839102	    -11.81816218	      5.74312091	      0.47389677	     16.91309724	    -17.97826552	    -17.19718158	     38.73787320	     46.24944455	      0.00000000	      0.00000000	      3.34822661	     -7.01519879	      2.32696692	     23.92060122	     45.69781726	      0.00000000	      0.00000000
      9.43400000	     -1.00902897	     -6.01277001	      2.41643705	      0.94478586	      0.91654626	      0.56195223	     12.00188698	      7.65837765	    -11.79816665	     26.60550877	     26.60550877	     17.23349309	    -11.59654781	     -0.72089630	     30.83521190	    -12.96171920	      2.63954287	     57.43753042	     57.43753042	     17.64993497	    -19.53034941	     22.10427231	    -11.99055308	      5.46725357	      0.31021593	     19.44070852	    -17.38868475	    -16.75397334	     41.00022377	     46.14555722	      0.00000000	      0.00000000	      0.88666053	     -6.72098967	      2.83149170	     22.97459206	     45.55432642	      0.00000000	      0.00000000
      9.45450000	     -0.85649447	     -5.91245541	      2.93190179	      0.94263789	      0.91501008	      0.56240821	     12.02975381	      7.59016066	    -11.81411476	     27.46554566	     27.46554566	     17.85554415	    -12.34488402	     -0.56067196	     31.60155946	    -12.39926928	      3.03418438	     54.62792115	     54.62792115	     17.35178301	    -19.49329301	     21.88493702	    -12.19094935	      5.08814591	      0.30710332	     21.80933162	    -16.92336435	    -16.24913408	     43.35389426	     46.03791725	      0.00000000	      0.00000000	     -1.29328031	     -6.50264961	      3.22232817	     22.37604456	     45.43246960	      0.00000000	      0.00000000
      9.47500000	     -0.76194800	     -5.71343358	      3.42375556	      0.94039521	      0.91391214	      0.56245078	     11.95128395	      7.38583263	    -11.90900537	     28.02825452	     28.02825452	     18.34446581	    -12.86932768	     -0.51524547	     32.19611157	    -11.64701122	      3.47343872	     51.62919354	     51.62919354	     16.85737860	    -19.42133860	     21.73264392	    -12.35555068	      4.64921445	      0.63338634	     24.19770253	    -16.75772793	    -15.89899808	     45.45706180	     45.95267466	      0.00000000	      0.00000000	     -3.13384794	     -6.27670544	      3.44195314	     21.93891492	     45.34952113	      0.00000000	      0.00000000
      9.49550000	     -0.77597808	     -5.55613550	      3.95741745	      0.93806784	      0.91313123	      0.56214932	     11.87549813	      7.19188861	    -12.12555930	     28.36665141	     28.36665141	     18.78897063	    -13.21680261	     -0.33115363	     32.74480602	    -10.84883523	      4.07750742	     48.53815725	     48.53815725	     15.97432831	    -19.33229861	     21.10513450	    -12.44222025	      4.38151517	      0.43054746	     26.62074538	    -16.14405475	    -15.18244996	     48.55718515	     45.81362766	      0.00000000	      0.00000000	     -5.21003279	     -6.22172157	      3.71633693	     21.78011339	     45.24388701	      0.00000000	      0.00000000
      9.51600000	     -0.91639306	     -5.45706296	      4.47887475	      0.93574929	      0.91281726	      0.56165749	     11.72755668	      7.05146189	    -12.43629526	     28.33403342	     28.33403342	     19.26510782	    -13.14859634	      0.38411696	     33.14451733	    -10.13665502	      4.69938825	     45.18719537	     45.18719537	     14.01331696	    -19.16113163	     17.89754809	    -12.50297578	      4.07037547	      0.81764701	     27.79570314	    -16.92415790	    -12.68872694	     54.09809391	     45.50897726	      0.00000000	      0.00000000	     -7.43999884	     -6.44880113	      4.88118456	     23.93965415	     44.93933960	      0.00000000	      0.00000000
      9.53650000	     -1.13374981	     -5.25353174	      4.96259593	      0.93347079	      0.91308325	      0.56077718	     11.46831273	      6.77627262	    -12.78482601	     27.95832644	     27.95832644	     19.42771518	    -13.03261110	      0.41411347	     33.39141084	     -9.29798691	      5.31652384	     41.83172260	     41.83172260	     12.38383057	    -18.86348499	     15.83482054	    -12.42699832	      3.72892855	      1.05858387	     29.89551514	    -17.04568095	    -11.83667684	     57.58548574	     45.37167289	      0.00000000	      0.00000000	     -9.04850258	     -6.64714243	      6.30716969	     24.65534480	     44.66036648	      0.00000000	      0.00000000
      9.55700000	     -1.40432596	     -5.06305649	      5.45355296	      0.93133043	      0.91386292	      0.55968254	     11.06247445	      6.52883804	    -13.17878209	     27.20860221	     27.20860221	     19.34995988	    -12.82690201	      0.24514579	     33.45143219	     -8.52160197	      5.91747678	     38.41067594	     38.41067594	     10.68814832	    -18.31313574	     13.43513642	    -12.30309484	      3.40719118	      1.29596466	     31.97656900	    -17.16006169	    -11.25413829	     60.99716985	     45.25942104	      0.00000000	      0.00000000	    -10.48180480	     -6.93742703	      7.74805352	     25.56752163	     44.41957644	      0.00000000	      0.00000000
      9.57750000	     -1.81370938	     -4.81883285	      5.86719875	      0.92930298	      0.91504770	      0.55839967	     10.63186323	      6.25313313	    -13.45533996	     26.15938301	     26.15938301	     19.23676883	    -12.55597400	      0.39357513	     33.50383747	     -7.78863974	      6.32038717	     35.20602511	     35.20602511	     10.12971076	    -17.01470846	     13.50941126	    -11.97054397	      2.99986511	      1.52886798	     34.48504055	    -17.00985084	    -11.14248857	     62.83704338	     45.20570062	      0.00000000	      0.00000000	    -11.32908993	     -6.93071780	      7.93764739	     25.44636462	     44.37865781	      0.00000000	      0.00000000
      9.59800000	     -2.16793327	     -4.75744622	      6.32391681	      0.92758315	      0.91622710	      0.55691118	     10.04683166	      6.12024135	    -14.06250995	     24.94861125	     24.94861125	     18.93938048	    -11.89362109	     -0.18275468	     33.29340021	     -7.39975350	      6.45018966	     31.90278776	     31.90278776	      8.39378224	    -15.48719915	      9.79872487	    -11.83214749	      2.88156310	      1.63355280	     36.24965892	    -17.40192646	     -9.98926656	     67.64052579	     45.03177437	      0.00000000	      0.00000000	    -12.77991826	     -7.35387699	      8.86879681	     27.36809684	     44.23198835	      0.00000000	      0.00000000
      9.61850000	     -2.61415902	     -4.63417402	      6.71744964	      0.92596393	      0.91757086	      0.55533090	      9.45291681	      5.99490832	    -14.44227061	     23.54329603	     23.54329603	     18.71061896	    -11.44963637	     -0.02587246	     33.08471412	     -7.00907928	      6.37503942	     28.96644872	     28.96644872	      8.16883652	    -13.33975900	      9.56737093	    -11.51400741	      2.56876657	      1.75423023	     38.73680415	    -17.30187785	     -9.84640611	     69.47842721	     44.98139854	      0.00000000	      0.00000000	    -13.37429934	     -7.44716303	      9.14504907	     27.37900811	     44.19038040	      0.00000000	      0.00000000
      9.63900000	     -3.03908992	     -4.60178060	      7.09248611	      0.92475122	      0.91866464	      0.55353442	      8.78394130	      5.94191067	    -14.93343607	     22.07896590	     22.07896590	     18.33127593	    -10.74516711	     -0.55956872	     32.72195795	     -6.85916790	      5.83354908	     26.16728040	     26.16728040	      7.37261539	    -10.82889105	      7.26134871	    -11.20625466	      2.49425677	      1.93770043	     40.56944683	    -17.65674013	     -8.80197376	     73.18284280	     44.85917799	      0.00000000	      0.00000000	    -14.25320286	     -7.80602077	     10.14344778	     28.81643028	     44.07055441	      0.00000000	      0.00000000
      9.65950000	     -3.56851183	     -4.56090475	      7.41286207	      0.92355147	      0.91937379	      0.55153523	      8.37680790	      5.86827896	    -15.22668588	     20.90786775	     20.90786775	     18.16773964	    -10.38024785	     -0.41008244	     32.39498783	     -6.57539639	      5.58265811	     23.71055196	     23.71055196	      7.18784008	     -9.13825479	      7.35779924	    -10.71971464	      2.30773080	      2.10418517	     42.92868378	    -17.62146389	     -8.69380960	     74.64297728	     44.82134789	      0.00000000	      0.00000000	    -14.48779804	     -7.84607564	     10.33211630	     28.86099976	     44.04736325	      0.00000000	      0.00000000
      9.68000000	     -3.82765140	     -4.52918744	      7.74671069	      0.92288647	      0.92013203	      0.54937516	      7.46762687	      5.85588769	    -15.66097637	     19.41096656	     19.41096656	     18.01607438	     -9.54779127	     -0.45695334	     31.79691777	     -6.47539243	      4.74513347	     21.69983094	     21.69983094	      6.94773428	     -6.93627274	      6.66364905	    -10.61452316	      2.18881741	      1.86470516	     45.11479204	    -17.37460935	     -8.01503503	     77.12415886	     44.73641156	      0.00000000	      0.00000000	    -14.94426684	     -8.01499984	     10.73104858	     29.19703094	     43.99992656	      0.00000000	      0.00000000
